<svg viewBox="0 0 800 500" preserveAspectRatio="none" xmlns="http://www.w3.org/2000/svg" xmlns:xlink="http://www.w3.org/1999/xlink" width="100%" id="blobSvg">
  <g transform="translate(130.70565795898438, 6.8917999267578125)">
    <path class="blob" d="M459.5,292.5Q456,335,409,348.5Q362,362,338.5,384.5Q315,407,282.5,446.5Q250,486,217,447.5Q184,409,149.5,397Q115,385,67.5,365Q20,345,53.5,297.5Q87,250,62,206Q37,162,64,126.5Q91,91,133.5,81Q176,71,213,61.5Q250,52,295,42.5Q340,33,372.5,64Q405,95,412,137.5Q419,180,441,215Q463,250,459.5,292.5Z" fill="#edf7f5"></path>
  </g>
</svg>